<svg width="28" height="28" viewBox="0 0 28 28" fill="none" xmlns="http://www.w3.org/2000/svg">
<rect width="28" height="28" rx="14" fill="#323232"/>
<path d="M20.0456 8.56885H7.95437C6.87678 8.56885 6 9.44562 6 10.5232V17.4766C6 18.5542 6.87678 19.431 7.95437 19.431H20.0456C21.1232 19.431 22 18.5542 22 17.4766V10.5234C22.0002 9.44562 21.1234 8.56885 20.0456 8.56885ZM19.0907 9.84385L14 13.1236L8.90934 9.84385H19.0907ZM20.0456 18.1562H7.95437C7.57973 18.1562 7.275 17.8513 7.275 17.4769V10.5596L13.6067 14.6311C13.6152 14.6364 13.6243 14.64 13.633 14.6449C13.6421 14.65 13.6515 14.6549 13.6608 14.6595C13.7099 14.6848 13.7605 14.7052 13.8121 14.7186C13.8175 14.7201 13.8228 14.7207 13.8281 14.722C13.8848 14.7354 13.9422 14.7437 13.9996 14.7437H14C14.0004 14.7437 14.0008 14.7437 14.0008 14.7437C14.0582 14.7437 14.1156 14.7356 14.1723 14.722C14.1776 14.7207 14.183 14.7201 14.1883 14.7186C14.2399 14.7052 14.2903 14.6848 14.3396 14.6595C14.3489 14.6549 14.3583 14.65 14.3674 14.6449C14.3761 14.64 14.3853 14.6364 14.3938 14.6311L20.7254 10.5596V17.4766C20.7252 17.8513 20.4203 18.1562 20.0456 18.1562Z" fill="white"/>
</svg>
