<svg width="147" height="46" viewBox="0 0 147 46" fill="none" xmlns="http://www.w3.org/2000/svg">
<path d="M114.307 0H88.8184L100.509 22.9392L88.8184 45.4929H114.307L125.806 22.9392L114.307 0Z" fill="#E6FF2A"/>
<path d="M79.7766 0H54.2877L65.9781 22.9392L54.2877 45.4929H79.7766L91.2754 22.9392L79.7766 0Z" fill="#E6FF2A"/>
<path d="M45.2457 0H19.7568L31.4472 22.9392L19.7568 45.4929H45.2457L56.7445 22.9392L45.2457 0Z" fill="#E6FF2A"/>
<path d="M0 15.1504V33.5765H6.03969V22.4185H12.1817V17.1977H8.08704L6.03969 19.2451V15.1504H12.1817V9.0083H6.03969L0 15.1504Z" fill="black"/>
<rect x="14.2291" y="11.0573" width="6.14206" height="22.5209" fill="black"/>
<path d="M22.4187 33.5778V17.199H28.5608V27.3334H34.7028V17.199H40.8449L40.9472 35.6251L34.7028 40.7435H28.5608V35.6251H34.7028V29.5855L30.6081 33.5778H22.4187Z" fill="black"/>
<path d="M53.2313 11.0573H46.9869V17.1993L41.8685 22.3177H46.9869V33.5781H59.271V28.4597H53.2313V22.3177H59.271V17.1993H53.129L53.2313 11.0573Z" fill="black"/>
<path d="M81.7916 33.5791V17.0979H88.036V20.5784L92.1308 17.0979H100.218V33.5791H94.0757V22.3186H88.036V33.5791H81.7916Z" fill="black"/>
<path fill-rule="evenodd" clip-rule="evenodd" d="M64.9009 19.6534L61.3236 22.315V30.4492L61.3758 33.5618L73.0253 33.5443L79.7442 28.457V17.1117H68.3814L64.9009 19.6534ZM73.8066 22.3165H67.6645V28.4585H73.8066V22.3165Z" fill="black"/>
<rect x="102.266" y="17.199" width="6.14206" height="16.3788" fill="black"/>
<rect x="102.265" y="9.0083" width="6.14206" height="6.14206" fill="black"/>
<path d="M110.557 33.5778V22.3174L116.597 17.199H126.322V22.3174H116.597V28.357H126.322V33.5778H110.557Z" fill="black"/>
<path fill-rule="evenodd" clip-rule="evenodd" d="M128.574 33.5778V23.0339L135.637 17.199H147V33.5778H140.96V30.302L136.661 33.5778H128.574ZM141.165 22.3164H134.614V28.4585H141.165V22.3164Z" fill="black"/>
</svg>
