<svg width="28" height="28" viewBox="0 0 28 28" fill="none" xmlns="http://www.w3.org/2000/svg">
<rect width="28" height="28" rx="14" fill="#323232"/>
<path fill-rule="evenodd" clip-rule="evenodd" d="M14 7.6C10.4654 7.6 7.6 10.4654 7.6 14C7.6 17.5346 10.4654 20.4 14 20.4C17.5346 20.4 20.4 17.5346 20.4 14C20.4 10.4654 17.5346 7.6 14 7.6ZM6 14C6 9.58172 9.58172 6 14 6C18.4183 6 22 9.58172 22 14C22 18.4183 18.4183 22 14 22C9.58172 22 6 18.4183 6 14Z" fill="white"/>
<path fill-rule="evenodd" clip-rule="evenodd" d="M12.4683 9.23374C11.9444 10.4125 11.6 12.0969 11.6 14C11.6 15.9031 11.9444 17.5875 12.4683 18.7663C12.7307 19.3566 13.0224 19.7849 13.3059 20.0547C13.5853 20.3206 13.8185 20.4 14 20.4C14.1815 20.4 14.4147 20.3206 14.6941 20.0547C14.9776 19.7849 15.2693 19.3566 15.5317 18.7663C16.0556 17.5875 16.4 15.9031 16.4 14C16.4 12.0969 16.0556 10.4125 15.5317 9.23374C15.2693 8.64337 14.9776 8.21514 14.6941 7.94533C14.4147 7.67944 14.1815 7.6 14 7.6C13.8185 7.6 13.5853 7.67944 13.3059 7.94533C13.0224 8.21514 12.7307 8.64337 12.4683 9.23374ZM12.2029 6.7863C12.6892 6.3235 13.2979 6 14 6C14.7021 6 15.3108 6.3235 15.7971 6.7863C16.2793 7.24516 16.6771 7.87135 16.9938 8.58392C17.6281 10.0111 18 11.9266 18 14C18 16.0734 17.6281 17.9889 16.9938 19.4161C16.6771 20.1287 16.2793 20.7548 15.7971 21.2137C15.3108 21.6765 14.7021 22 14 22C13.2979 22 12.6892 21.6765 12.2029 21.2137C11.7207 20.7548 11.3229 20.1287 11.0062 19.4161C10.3719 17.9889 10 16.0734 10 14C10 11.9266 10.3719 10.0111 11.0062 8.58392C11.3229 7.87135 11.7207 7.24516 12.2029 6.7863Z" fill="white"/>
<path fill-rule="evenodd" clip-rule="evenodd" d="M14.1278 17.2011C11.4976 17.2011 9.2774 17.8197 8.05423 18.6604L7.14795 17.3418C8.73105 16.2537 11.3095 15.6011 14.1278 15.6011C16.7886 15.6011 19.2254 16.1823 20.8179 17.1542L19.9843 18.52C18.7199 17.7483 16.6002 17.2011 14.1278 17.2011Z" fill="white"/>
<path fill-rule="evenodd" clip-rule="evenodd" d="M14.0518 12.3996C11.2635 12.3996 8.71128 11.7464 7.1438 10.6564L8.05724 9.34277C9.26359 10.1816 11.4547 10.7996 14.0518 10.7996C16.5834 10.7996 18.7337 10.2121 19.9593 9.40177L20.8417 10.7364C19.2683 11.7767 16.7751 12.3996 14.0518 12.3996Z" fill="white"/>
</svg>
