<svg width="28" height="28" viewBox="0 0 28 28" fill="none" xmlns="http://www.w3.org/2000/svg">
<rect width="28" height="28" rx="14" fill="#323232"/>
<g clip-path="url(#clip0_35_148)">
<path d="M21.7896 13.6188C21.7896 12.4307 21.1338 11.3936 20.1656 10.8485C19.5721 8.08854 16.9055 6 13.7148 6C10.3393 6 7.5503 8.33754 7.18214 11.3347C6.58358 11.9128 6.21021 12.7228 6.21021 13.6188C6.21021 15.3707 7.63555 16.7961 9.38748 16.7961C9.51042 16.7961 9.61004 16.6964 9.61004 16.5735V10.664C9.61004 10.5411 9.51042 10.4414 9.38748 10.4414C9.23787 10.4414 9.09084 10.4526 8.94662 10.4727C9.65526 8.74189 11.5252 7.50244 13.7148 7.50244C15.9079 7.50244 17.7801 8.74581 18.4862 10.4809C18.428 10.5211 18.3898 10.5881 18.3898 10.664V16.5735C18.3898 16.6964 18.4894 16.7961 18.6124 16.7961C18.686 16.7961 18.7588 16.7927 18.8312 16.7877C18.3384 18.3209 17.0044 19.5391 15.3065 20.0158C15.1033 19.687 14.7396 19.4679 14.3247 19.4679H13.1049C12.4678 19.4679 11.9513 19.9843 11.9513 20.6214V20.8464C11.9513 21.4836 12.4678 22.0001 13.1049 22.0001H14.3247C14.9063 22.0001 15.3873 21.5696 15.4666 21.0098C17.7506 20.4092 19.5073 18.6652 19.9373 16.5056C21.0294 16.0022 21.7896 14.898 21.7896 13.6188Z" fill="white"/>
</g>
<defs>
<clipPath id="clip0_35_148">
<rect width="16" height="16" fill="white" transform="translate(6 6)"/>
</clipPath>
</defs>
</svg>
