<svg width="28" height="28" viewBox="0 0 28 28" fill="none" xmlns="http://www.w3.org/2000/svg">
<g clip-path="url(#clip0_35_281)">
<rect width="28" height="28" rx="14" fill="#323232"/>
<g clip-path="url(#clip1_35_281)">
<mask id="mask0_35_281" style="mask-type:luminance" maskUnits="userSpaceOnUse" x="0" y="0" width="28" height="28">
<path d="M28 14C28 6.26801 21.732 0 14 0C6.26801 0 0 6.26801 0 14C0 21.732 6.26801 28 14 28C21.732 28 28 21.732 28 14Z" fill="white"/>
</mask>
<g mask="url(#mask0_35_281)">
<path d="M28 0H0V28H28V0Z" fill="#323232"/>
<path d="M17.2955 13.3608H9.02332V10.0874H17.2955C17.7787 10.0874 18.1147 10.1716 18.2833 10.3187C18.4519 10.4657 18.5564 10.7385 18.5564 11.137V12.3124C18.5564 12.7322 18.4519 13.005 18.2833 13.1521C18.1147 13.2992 17.7787 13.362 17.2955 13.362V13.3608ZM17.863 7.00125H5.51514V21H9.02332V16.4456H15.4886L18.5564 21H22.4848L19.1025 16.4243C20.3495 16.2395 20.9094 15.8573 21.3712 15.2275C21.833 14.5977 22.0646 13.5908 22.0646 12.247V11.1974C22.0646 10.4004 21.9802 9.77058 21.833 9.28788C21.6858 8.80515 21.4342 8.3853 21.0768 8.00817C20.6993 7.65117 20.279 7.39974 19.7744 7.2313C19.2698 7.08423 18.6394 7 17.863 7V7.00125Z" fill="white"/>
</g>
</g>
</g>
<defs>
<clipPath id="clip0_35_281">
<rect width="28" height="28" rx="14" fill="white"/>
</clipPath>
<clipPath id="clip1_35_281">
<rect width="28" height="28" fill="white"/>
</clipPath>
</defs>
</svg>
